# xmcd
#
# Track frame offsets: 
#        150
#        15022
#        29549
#        43037
#        54931
#        65340
#        76261
#        85151
#        95415
#        110280
#        124098
#        136464
#        149894
#        161682
#        173160
#        185823
#        199567
#        211675
#        222475
#        236109
#
# Disc length: 3314 seconds
#
# Revision: 3
# Processed by: cddbd v1.5.2PL0 Copyright (c) Steve Scherf et al.
# Submitted via: ExactAudioCopyFreeDBPlugin 1.0
#
DISCID=180cf014
DTITLE=Various Artist - Rock 'n' Roll:  The Early Years
DYEAR=2003
DGENRE=Rhythm and Blues
TTITLE0=Buddy and Ella Johnson - That's How I Feel About You
TTITLE1=Buddy and Ella Johnson - Hittin' on Me
TTITLE2=Buddy and Ella Johnson - Shut Your Big Mouth (Girl)
TTITLE3=Buddy and Ella Johnson - I Still Love You
TTITLE4=Clyde McPhatter - Ta Ta
TTITLE5=Clyde McPhatter - I Never Knew
TTITLE6=Clyde McPhatter - Lover Please
TTITLE7=Clyde McPhatter - Little Bitty Pretty One
TTITLE8=B.B. King - B.B.'s Boogie
TTITLE9=The Ink Spots - Java Jive
TTITLE10=The Ink Spots - I Get the Blues When it Rains
TTITLE11=The Ink Spots - Cow Cow Boogie
TTITLE12=Jimmy Witherspoon - Who's Been Jivin' You
TTITLE13=Howlin Wolf - Moanin' at Midnight
TTITLE14=Una Mae Carlisle - The Boogie Woogie Piggy
TTITLE15=Una Mae Carlisle - Now I Lay Me Down to Dream
TTITLE16=Una Mae Carlisle - Papa's in Bed with His Britches On
TTITLE17=Una Mae Carlisle - Don't Tetch It
TTITLE18=Herbie Fields Quintette - I Wanna
TTITLE19=Herbie Fields Quintette - Dardanella
EXTD=Rock 'n' Roll came to dominate popular music internationally for 
EXTD=thirty years, twice as long as Jazz did in the Big Band Era. Born
EXTD=of black R and B crossing over into the white pop charts at a time
EXTD=when music with a danceable beat was relatively scarce, it becam
EXTD=e a force that still influences music today.
EXTT0=Buddy and Ella Johnson
EXTT1=Buddy and Ella Johnson
EXTT2=Buddy and Ella Johnson
EXTT3=Buddy and Ella Johnson
EXTT4=Clyde McPhatter
EXTT5=Clyde McPhatter
EXTT6=Clyde McPhatter
EXTT7=Clyde McPhatter
EXTT8=B.B. King
EXTT9=The Ink Spots
EXTT10=The Ink Spots
EXTT11=The Ink Spots
EXTT12=Jimmy Witherspoon
EXTT13=Howlin' Wolf
EXTT14=Una Mae Carlisle
EXTT15=Una Mae Carlisle
EXTT16=Una Mae Carlisle
EXTT17=Una Mae Carlisle
EXTT18=Herbie Fields Quintette
EXTT19=Herbie Fields Quintette
PLAYORDER=
